<?xml version="1.0"?>
<svg xmlns="http://www.w3.org/2000/svg" height="512px" viewBox="0 0 480.08177 480" width="512px"
    class="">
    <g>
        <path
            d="m24 8.039062h320c8.835938 0 16 7.164063 16 16v432c0 8.839844-7.164062 16-16 16h-320c-8.835938 0-16-7.160156-16-16v-432c0-8.835937 7.164062-16 16-16zm0 0"
            fill="#57b7eb" data-original="#57B7EB" class="" data-old_color="#57b7eb"
            style="fill:#C7EBFF" />
        <path
            d="m208 408.039062c-79.527344 0-144-64.46875-144-144v-256h-40c-8.835938 0-16 7.164063-16 16v432c0 8.839844 7.164062 16 16 16h320c8.835938 0 16-7.160156 16-16v-48zm0 0"
            fill="#4891d3" data-original="#4891D3" class="" style="fill:#A15E9C"
            data-old_color="#4891d3" />
        <path d="m80 56.039062h208v32h-208zm0 0" fill="#f9e109" data-original="#F9E109" class=""
            style="fill:#AB62A5" data-old_color="#f9e109" />
        <path
            d="m264 128.039062h-160c-4.417969 0-8-3.578124-8-8 0-4.417968 3.582031-8 8-8h160c4.417969 0 8 3.582032 8 8 0 4.421876-3.582031 8-8 8zm0 0"
            fill="#39519d" data-original="#39519D" class="" style="fill:#563853"
            data-old_color="#39519d" />
        <path
            d="m312 184.039062h-176c-4.417969 0-8-3.578124-8-8 0-4.417968 3.582031-8 8-8h176c4.417969 0 8 3.582032 8 8 0 4.421876-3.582031 8-8 8zm0 0"
            fill="#39519d" data-original="#39519D" class="" style="fill:#563853"
            data-old_color="#39519d" />
        <path
            d="m224 232.039062h-160c-4.417969 0-8-3.578124-8-8 0-4.417968 3.582031-8 8-8h160c4.417969 0 8 3.582032 8 8 0 4.421876-3.582031 8-8 8zm0 0"
            fill="#39519d" data-original="#39519D" class="" style="fill:#563853"
            data-old_color="#39519d" />
        <path
            d="m312 232.039062h-56c-4.417969 0-8-3.578124-8-8 0-4.417968 3.582031-8 8-8h56c4.417969 0 8 3.582032 8 8 0 4.421876-3.582031 8-8 8zm0 0"
            fill="#39519d" data-original="#39519D" class="" style="fill:#563853"
            data-old_color="#39519d" />
        <path
            d="m144 272.039062h-80c-4.417969 0-8-3.578124-8-8 0-4.417968 3.582031-8 8-8h80c4.417969 0 8 3.582032 8 8 0 4.421876-3.582031 8-8 8zm0 0"
            fill="#39519d" data-original="#39519D" class="" style="fill:#563853"
            data-old_color="#39519d" />
        <path
            d="m232 272.039062h-56c-4.417969 0-8-3.578124-8-8 0-4.417968 3.582031-8 8-8h56c4.417969 0 8 3.582032 8 8 0 4.421876-3.582031 8-8 8zm0 0"
            fill="#39519d" data-original="#39519D" class="" style="fill:#563853"
            data-old_color="#39519d" />
        <path d="m288 88.039062h-208v-32zm0 0" fill="#fcbc04" data-original="#FCBC04" class=""
            style="fill:#9B3993" data-old_color="#fcbc04" />
        <path
            d="m160 380.039062c0 33.140626-26.863281 60-60 60s-60-26.859374-60-60c0-33.136718 26.863281-60 60-60s60 26.863282 60 60zm0 0"
            fill="#f9e109" data-original="#F9E109" class="" style="fill:#AB62A5"
            data-old_color="#f9e109" />
        <path
            d="m100 440.039062c25.980469-.003906 49.003906-16.734374 57.039062-41.4375-35.207031-13.359374-63.785156-39.984374-79.597656-74.160156-26.605468 10.789063-41.835937 38.914063-36.335937 67.09375 5.496093 28.175782 30.1875 48.507813 58.894531 48.503906zm0 0"
            fill="#fcbc04" data-original="#FCBC04" class="" style="fill:#9B3993"
            data-old_color="#fcbc04" />
        <path
            d="m200 416.039062c-.871094.03125-1.738281-.105468-2.558594-.398437-4.164062-1.40625-6.414062-5.90625-5.042968-10.078125l19.679687-59.042969c2.410156-7.203125 9.554687-11.71875 17.09375-10.808593 7.542969.910156 13.402344 7 14.027344 14.570312l2.722656 32 2.878906-4.878906c3.058594-5.335938 8.90625-8.445313 15.039063-8 6.035156.503906 11.269531 4.375 13.519531 10l5.121094 12.636718 23.28125-29.597656c1.320312-1.671875 3.253906-2.746094 5.371093-2.988281 2.117188-.238281 4.246094.375 5.90625 1.707031 3.433594 2.75 4.003907 7.75 1.28125 11.199219l-23.359374 29.679687c-3.5625 4.453126-9.21875 6.671876-14.855469 5.832032s-10.398438-4.617188-12.503907-9.910156l-4.960937-12.558594-2.960937 4.878906c-3.484376 5.921875-10.359376 8.957031-17.082032 7.542969-6.722656-1.414063-11.792968-6.960938-12.597656-13.785157l-2.71875-32.476562-19.28125 58.71875c-1.027344 3.53125-4.328125 5.90625-8 5.757812zm0 0"
            fill="#39519d" data-original="#39519D" class="" style="fill:#563853"
            data-old_color="#39519d" />
        <path
            d="m97.921875 402.761719c-4.226563.003906-8.28125-1.664063-11.28125-4.640625l-16.960937-16.960938c-1.515626-1.5-2.367188-3.546875-2.367188-5.679687 0-2.132813.851562-4.175781 2.367188-5.679688 3.121093-3.101562 8.160156-3.101562 11.28125 0l16.960937 16.960938 28.316406-28.242188c3.175781-2.71875 7.90625-2.535156 10.863281.421875 2.953126 2.953125 3.136719 7.683594.417969 10.859375l-28.238281 28.320313c-3.019531 2.996094-7.109375 4.664062-11.359375 4.640625zm0 0"
            fill="#39519d" data-original="#39519D" class="" style="fill:#563853"
            data-old_color="#39519d" />
        <path d="m403.25 163.449219 41.570312 24-72 124.707031-41.570312-24zm0 0" fill="#fcbc04"
            data-original="#FCBC04" class="" style="fill:#9B3993" data-old_color="#fcbc04" />
        <path
            d="m368.800781 223.082031-37.601562 64.957031 41.601562 24 12.160157-21.199218c-9.019532-21.5625-14.476563-44.445313-16.160157-67.757813zm0 0"
            fill="#e59730" data-original="#E59730" class="" style="fill:#00AF80"
            data-old_color="#e59730" />
        <path d="m372.800781 312.199219-41.601562-24-17.039063 45.523437 27.679688 16zm0 0"
            fill="#a1d51c" data-original="#A1D51C" class="active-path" style="fill:#7D7DC7"
            data-old_color="#a1d51c" />
        <path
            d="m314.128906 333.757812 27.710938 16-8 13.859376c-4.417969 7.652343-14.203125 10.273437-21.855469 5.855468-7.652344-4.417968-10.273437-14.203125-5.855469-21.855468zm0 0"
            fill="#e59730" data-original="#E59730" class="" style="fill:#00AF80"
            data-old_color="#e59730" />
        <path d="m427.179688 121.914062 41.570312 24-24 41.570313-41.570312-24zm0 0" fill="#fcbc04"
            data-original="#FCBC04" class="" style="fill:#9B3993" data-old_color="#fcbc04" />
        <path
            d="m463.964844 106.203125c7.652344 4.417969 10.273437 14.203125 5.855468 21.855469l-8 13.859375-27.710937-16 8-13.859375c4.417969-7.652344 14.203125-10.273438 21.855469-5.855469zm0 0"
            fill="#c4f236" data-original="#C4F236" class="" style="fill:#95B72C"
            data-old_color="#c4f236" />
        <path d="m392.320312 182.464844 8-13.855469 41.570313 24-8 13.855469zm0 0" fill="#e59730"
            data-original="#E59730" class="" style="fill:#00AF80" data-old_color="#e59730" />
        <path
            d="m432.480469 280.761719c-1.402344.007812-2.78125-.351563-4-1.039063-1.839844-1.070312-3.175781-2.828125-3.714844-4.882812-.542969-2.058594-.242187-4.246094.835937-6.078125l32-55.441407c1.0625-1.839843 1.351563-4.027343.796876-6.078124-.550782-2.066407-1.902344-3.820313-3.757813-4.882813l-69.28125-40c-3.808594-2.195313-5.128906-7.054687-2.960937-10.878906 1.058593-1.851563 2.808593-3.203125 4.867187-3.761719 2.054687-.554688 4.25-.265625 6.09375.800781l69.28125 40c5.515625 3.175781 9.542969 8.414063 11.199219 14.5625 1.65625 6.15625.792968 12.71875-2.398438 18.238281l-32 55.441407c-1.4375 2.484375-4.09375 4.011719-6.960937 4zm0 0"
            fill="#39519d" data-original="#39519D" class="" style="fill:#563853"
            data-old_color="#39519d" />
        <path
            d="m456 112.039062c.039062-2.699218.417969-5.386718 1.121094-8-6.105469-.414062-11.914063 2.695313-14.960938 8l-8 13.84375 27.679688 16 4-6.882812c-6.300782-5.96875-9.863282-14.277344-9.839844-22.960938zm0 0"
            fill="#a1d51c" data-original="#A1D51C" class="active-path" style="fill:#7D7DC7"
            data-old_color="#a1d51c" />
        <g fill="#39519d">
            <path
                d="m479.199219 113.800781c-1.652344-6.144531-5.683594-11.382812-11.199219-14.558593-5.519531-3.191407-12.082031-4.054688-18.238281-2.402344-6.148438 1.65625-11.386719 5.683594-14.5625 11.199218l-4 6.960938c-3.800781-2.183594-8.65625-.898438-10.878907 2.882812l-20.320312 34.636719-6.960938-4c-1.84375-1.066406-4.039062-1.355469-6.09375-.800781-2.058593.558594-3.808593 1.910156-4.867187 3.761719-2.167969 3.824219-.847656 8.683593 2.960937 10.878906l6.960938 4-68 117.839844-16.800781 44.882812-8 14.957031c-4.683594 8.148438-4.183594 18.277344 1.28125 25.921876l-18 22.078124-5.039063-12.636718c-2.273437-5.632813-7.535156-9.492188-13.585937-9.964844-6.054688-.476562-11.855469 2.515625-14.976563 7.722656l-2.878906 4.878906-2.71875-32c-.625-7.570312-6.488281-13.65625-14.027344-14.570312-7.542968-.910156-14.683594 3.609375-17.09375 10.8125l-19.679687 59.039062c-1.375 4.175782.875 8.675782 5.039062 10.082032.78125.363281 1.621094.582031 2.480469.636718 3.4375.011719 6.5-2.179687 7.601562-5.4375l19.597657-59.039062 2.800781 32.476562c.578125 6.929688 5.558594 12.691407 12.332031 14.261719 6.773438 1.570313 13.78125-1.414062 17.347657-7.378906l2.960937-4.882813 4.960937 12.5625c2.105469 5.292969 6.867188 9.070313 12.503907 9.910157 5.636719.839843 11.292969-1.382813 14.855469-5.832031l18.640624-23.597657c2.0625.539063 4.1875.808594 6.320313.800781 8.574219.066407 16.535156-4.449218 20.878906-11.84375l8-13.359374 30.480469-37.039063 68.71875-119.28125 6.960938 4c1.855468 1.0625 3.207031 2.816406 3.757812 4.882813.554688 2.050781.265625 4.238281-.796875 6.078124l-32 55.441407c-1.207031 1.820312-1.617187 4.054687-1.132813 6.1875.484376 2.128906 1.816407 3.96875 3.691407 5.089843 1.84375 1.070313 4.039062 1.359376 6.09375.804688 2.058593-.558594 3.808593-1.910156 4.867187-3.761719l32-55.441406c3.191406-5.519531 4.054688-12.082031 2.398438-18.238281-1.65625-6.148438-5.683594-11.386719-11.199219-14.5625l-6.960937-4 20-34.640625c2.183593-3.800781.898437-8.652344-2.878907-10.878907l4-6.960937c3.277344-5.605469 4.144531-12.300781 2.398438-18.558594zm-30.160157 2.238281c1.058594-1.851562 2.816407-3.207031 4.882813-3.757812 2.054687-.507812 4.226563-.222656 6.078125.800781 1.855469 1.058594 3.207031 2.816407 3.761719 4.878907.507812 2.054687.222656 4.226562-.800781 6.078124l-4 6.960938-13.921876-8zm-109.039062 223.363282-4-2.320313-11.839844-6.882812 11.359375-30.398438 25.199219 14.558594zm-24 23.117187c-3.378906-2.355469-4.417969-6.886719-2.398438-10.480469l4-6.957031 13.917969 8-4 6.878907c-1.121093 1.945312-3.003906 3.328124-5.195312 3.816406-2.191407.484375-4.484375.03125-6.324219-1.257813zm53.839844-61.277343-27.679688-16 64-110.882813 27.679688 16zm72-124.722657-27.679688-16 16-27.679687 27.679688 16zm0 0"
                data-original="#39519D" class="" style="fill:#563853" data-old_color="#39519D" />
            <path
                d="m126.238281 358.519531-28.316406 28.242188-16.960937-16.960938c-3.121094-3.101562-8.160157-3.101562-11.28125 0-1.515626 1.503907-2.367188 3.546875-2.367188 5.679688 0 2.132812.851562 4.179687 2.367188 5.679687l16.960937 16.960938c3 2.976562 7.054687 4.644531 11.28125 4.640625 4.25.023437 8.339844-1.644531 11.359375-4.640625l28.238281-28.320313c2.71875-3.175781 2.535157-7.90625-.417969-10.859375-2.957031-2.957031-7.6875-3.140625-10.863281-.421875zm0 0"
                data-original="#39519D" class="" style="fill:#563853" data-old_color="#39519D" />
            <path
                d="m32 380.039062c0 37.558594 30.445312 68 68 68s68-30.441406 68-68c0-4.417968-3.582031-8-8-8s-8 3.582032-8 8c0 28.71875-23.28125 52-52 52s-52-23.28125-52-52 23.28125-52 52-52c11.257812-.03125 22.214844 3.621094 31.199219 10.402344 3.535156 2.652344 8.550781 1.933594 11.199219-1.601562 2.652343-3.535156 1.9375-8.546875-1.597657-11.199219-20.605469-15.453125-48.175781-17.9375-71.210937-6.421875-23.039063 11.519531-37.589844 35.066406-37.589844 60.820312zm0 0"
                data-original="#39519D" class="" style="fill:#563853" data-old_color="#39519D" />
            <path
                d="m288 64.039062c4.417969 0 8-3.578124 8-8 0-4.417968-3.582031-8-8-8h-208c-4.417969 0-8 3.582032-8 8v32c0 4.421876 3.582031 8 8 8h208c4.417969 0 8-3.578124 8-8 0-4.417968-3.582031-8-8-8h-200v-16zm0 0"
                data-original="#39519D" class="" style="fill:#563853" data-old_color="#39519D" />
            <path
                d="m104 112.039062c-4.417969 0-8 3.582032-8 8 0 4.421876 3.582031 8 8 8h160c4.417969 0 8-3.578124 8-8 0-4.417968-3.582031-8-8-8zm0 0"
                data-original="#39519D" class="" style="fill:#563853" data-old_color="#39519D" />
            <path
                d="m312 168.039062h-176c-4.417969 0-8 3.582032-8 8 0 4.421876 3.582031 8 8 8h176c4.417969 0 8-3.578124 8-8 0-4.417968-3.582031-8-8-8zm0 0"
                data-original="#39519D" class="" style="fill:#563853" data-old_color="#39519D" />
            <path
                d="m232 224.039062c0-4.417968-3.582031-8-8-8h-160c-4.417969 0-8 3.582032-8 8 0 4.421876 3.582031 8 8 8h160c4.417969 0 8-3.578124 8-8zm0 0"
                data-original="#39519D" class="" style="fill:#563853" data-old_color="#39519D" />
            <path
                d="m312 216.039062h-56c-4.417969 0-8 3.582032-8 8 0 4.421876 3.582031 8 8 8h56c4.417969 0 8-3.578124 8-8 0-4.417968-3.582031-8-8-8zm0 0"
                data-original="#39519D" class="" style="fill:#563853" data-old_color="#39519D" />
            <path
                d="m144 272.039062c4.417969 0 8-3.578124 8-8 0-4.417968-3.582031-8-8-8h-80c-4.417969 0-8 3.582032-8 8 0 4.421876 3.582031 8 8 8zm0 0"
                data-original="#39519D" class="" style="fill:#563853" data-old_color="#39519D" />
            <path
                d="m176 272.039062h56c4.417969 0 8-3.578124 8-8 0-4.417968-3.582031-8-8-8h-56c-4.417969 0-8 3.582032-8 8 0 4.421876 3.582031 8 8 8zm0 0"
                data-original="#39519D" class="" style="fill:#563853" data-old_color="#39519D" />
            <path
                d="m360 368.039062c-4.417969 0-8 3.582032-8 8v80c0 4.421876-3.582031 8-8 8h-320c-4.417969 0-8-3.578124-8-8v-432c0-4.417968 3.582031-8 8-8h320c4.417969 0 8 3.582032 8 8v150.242188c0 4.417969 3.582031 8 8 8s8-3.582031 8-8v-150.242188c0-13.253906-10.746094-23.9999995-24-23.9999995h-320c-13.253906 0-24 10.7460935-24 23.9999995v432c0 13.257813 10.746094 24 24 24h320c13.253906 0 24-10.742187 24-24v-80c0-4.417968-3.582031-8-8-8zm0 0"
                data-original="#39519D" class="" style="fill:#563853" data-old_color="#39519D" />
        </g>
    </g>
</svg>
