<?xml version="1.0"?>
<svg xmlns="http://www.w3.org/2000/svg" id="_x31__x2C_5" enable-background="new 0 0 36 36"
    height="512px" viewBox="0 0 36 36" width="512px" class="">
    <g>
        <g>
            <g>
                <path
                    d="m8.377 4.167c6.917 0 11.667-3.583 15-3.583s10.333 1.916 10.333 17.249-9.417 17.583-13.083 17.583c-17.167.001-24.5-31.249-12.25-31.249z"
                    fill="#efefef" data-original="#FFFFFF" class="active-path" style="fill:#EFEFEF"
                    data-old_color="#efefef" />
            </g>
            <g>
                <path
                    d="m31.5 7c-.827 0-1.5-.673-1.5-1.5s.673-1.5 1.5-1.5 1.5.673 1.5 1.5-.673 1.5-1.5 1.5zm0-2c-.275 0-.5.224-.5.5s.225.5.5.5.5-.224.5-.5-.225-.5-.5-.5z"
                    fill="#a4afc1" data-original="#673AB7" class="" data-old_color="#a4afc1"
                    style="fill:#673AB7" />
            </g>
            <g>
                <path d="m27.25 28.25h-18.5c-1.105 0-2-.895-2-2v-15h22.5v15c0 1.105-.895 2-2 2z"
                    fill="#f3f3f1" data-original="#FFFFFF" class="active-path" style="fill:#EFEFEF"
                    data-old_color="#f3f3f1" />
            </g>
            <g>
                <path d="m29.25 11.25h-22.5v-1.5c0-1.105.895-2 2-2h18.5c1.105 0 2 .895 2 2z"
                    fill="#2fdf84" data-original="#9168DE" class="" style="fill:#9168DE"
                    data-old_color="#2fdf84" />
            </g>
            <g>
                <circle cx="18" cy="20" fill="#2fdf84" r="5.25" data-original="#9168DE" class=""
                    style="fill:#9168DE" data-old_color="#2fdf84" />
            </g>
            <g>
                <path
                    d="m15 20c0-2.512 1.767-4.607 4.125-5.123-.363-.079-.738-.127-1.125-.127-2.899 0-5.25 2.35-5.25 5.25 0 2.899 2.351 5.25 5.25 5.25.387 0 .762-.048 1.125-.128-2.358-.515-4.125-2.61-4.125-5.122z"
                    fill="#00b871" data-original="#673AB7" class="" style="fill:#673AB7"
                    data-old_color="#00b871" />
            </g>
            <g>
                <path d="m9.25 26.25v-15h-2.5v15c0 1.105.895 2 2 2h2.5c-1.105 0-2-.895-2-2z"
                    fill="#d5dbe1" data-original="#D5DBE1" class="" />
            </g>
            <g>
                <path d="m11 7.75h-2.25c-1.105 0-2 .895-2 2v1.5h2.25v-1.5c0-1.105.895-2 2-2z"
                    fill="#00b871" data-original="#673AB7" class="" style="fill:#673AB7"
                    data-old_color="#00b871" />
            </g>
            <g>
                <path
                    d="m18 26c-3.309 0-6-2.691-6-6s2.691-6 6-6 6 2.691 6 6-2.691 6-6 6zm0-10.5c-2.481 0-4.5 2.019-4.5 4.5s2.019 4.5 4.5 4.5 4.5-2.019 4.5-4.5-2.019-4.5-4.5-4.5z"
                    data-original="#000000" class="" style="fill:#000000" />
            </g>
            <g>
                <path d="m15.482 19.25h5.035v1.5h-5.035z"
                    transform="matrix(.707 -.707 .707 .707 -8.87 18.586)" data-original="#000000"
                    class="" style="fill:#000000" />
            </g>
            <g>
                <path d="m17.25 17.482h1.5v5.035h-1.5z"
                    transform="matrix(.707 -.707 .707 .707 -8.87 18.586)" data-original="#000000"
                    class="" style="fill:#000000" />
            </g>
            <g>
                <path
                    d="m27.25 29h-18.5c-1.517 0-2.75-1.233-2.75-2.75v-16.5c0-1.517 1.233-2.75 2.75-2.75h18.5c1.517 0 2.75 1.233 2.75 2.75v16.5c0 1.517-1.233 2.75-2.75 2.75zm-18.5-20.5c-.689 0-1.25.561-1.25 1.25v16.5c0 .689.561 1.25 1.25 1.25h18.5c.689 0 1.25-.561 1.25-1.25v-16.5c0-.689-.561-1.25-1.25-1.25z"
                    data-original="#000000" class="" style="fill:#000000" />
            </g>
            <g>
                <path d="m6.75 10.5h22.5v1.5h-22.5z" data-original="#000000" class=""
                    style="fill:#000000" />
            </g>
            <g>
                <path d="m2 27.5h32v1.5h-32z" data-original="#000000" class=""
                    style="fill:#000000" />
            </g>
        </g>
    </g>
</svg>
